<svg width="610" height="618" viewBox="0 0 610 618" fill="none" xmlns="http://www.w3.org/2000/svg">
<path d="M249.2 491L236.3 435.9L172.7 428.6L192.9 529.9L220.2 533.5" stroke="#231815" stroke-miterlimit="10" stroke-linecap="round" stroke-linejoin="round"/>
<path d="M409.8 298.701C449.8 285.401 485.3 288.701 504.3 298.801C523.3 308.901 536.8 329.901 535.3 351.401C534.1 367.401 524.1 388.201 513 399.901C461.4 454.301 372.6 445.401 314.5 492.701C305.1 500.401 295.9 512.401 300.6 523.601C304.6 533.201 316.7 536.401 327.1 535.801C344.3 534.801 377 522.301 372.1 513.501C368.8 507.601 348 511.701 337 517.201C326 522.701 311.2 532.101 312.7 542.901C314.5 555.101 348.3 555.901 336 556.501C321.1 557.301 294.7 577.501 296.7 603.501C297.8 617.401 311 617.301 311 617.301" stroke="#231815" stroke-miterlimit="10" stroke-linecap="round" stroke-linejoin="round"/>
<path d="M122.7 304.1C-40.8998 280.8 63.9002 97.9004 245.8 84.9004" stroke="#231815" stroke-miterlimit="10" stroke-linecap="round" stroke-linejoin="round"/>
<path d="M305.4 273.4C300.3 302.7 338.7 333.9 376.6 338.3" stroke="#231815" stroke-miterlimit="10" stroke-linecap="round" stroke-linejoin="round"/>
<path d="M305.4 273.401C293.4 282.401 260 296.201 239.3 262.801" stroke="#231815" stroke-miterlimit="10" stroke-linecap="round" stroke-linejoin="round"/>
<path d="M348.7 381.6C342.8 359.1 350.4 353.3 357 346.1C368.8 333.2 383.9 317.5 381.5 291.4C376.6 239.2 326.8 237.6 326.8 237.6C326.8 237.6 299.1 229.6 276.4 254.2C258.8 273.3 260.2 301.5 260.2 301.5C260.2 301.5 256.5 319 245.9 327.6L257.3 332.7C257.3 332.7 256.8 354.3 266.1 367.4C277.6 383.6 305.9 377.2 312.8 369C321.1 359.1 295.3 360.2 302.2 374.7C311.1 393.3 304.6 398.4 304.6 398.4" stroke="#231815" stroke-miterlimit="10" stroke-linecap="round" stroke-linejoin="round"/>
<path d="M357.7 396.801C365 402.401 379.2 415.501 391.4 440.101C409.6 476.701 409.6 512.801 409.6 512.801" stroke="#231815" stroke-miterlimit="10" stroke-linecap="round" stroke-linejoin="round"/>
<path d="M295.4 391.199C295.4 391.199 264.5 391.999 239.4 425.999" stroke="#231815" stroke-miterlimit="10" stroke-linecap="round" stroke-linejoin="round"/>
<path d="M296.5 405.9L288.2 433.1C288.2 433.1 308.8 411.9 332.5 403.4" stroke="#231815" stroke-miterlimit="10" stroke-linecap="round" stroke-linejoin="round"/>
<path d="M409.8 512.801H540.7" stroke="#231815" stroke-miterlimit="10" stroke-linecap="round" stroke-linejoin="round"/>
<path d="M63.9004 512.801H161" stroke="#231815" stroke-miterlimit="10" stroke-linecap="round" stroke-linejoin="round"/>
<path d="M161 333.8C156.1 330 151 326.2 145.6 322.5C143.6 317.5 139 313.6 133.7 312.6C135.9 316.2 133.2 322.8 139.7 324.7" stroke="#231815" stroke-miterlimit="10" stroke-linecap="round" stroke-linejoin="round"/>
<path d="M212.5 383C205.2 374.7 197.6 366.7 188.7 358.1" stroke="#231815" stroke-miterlimit="10" stroke-linecap="round" stroke-linejoin="round"/>
<path d="M186.5 390.3C185.9 368.2 185.1 343.1 166.9 326.8C165.9 325.9 161.9 323 160.1 323.9C154.1 326.8 165.5 338.3 163.7 339.7C158.3 343.7 151.1 349 149.6 355.3C148.1 361.4 150.3 365.2 153.8 370.4C158.3 377.1 163.6 382.8 161.6 388.5" stroke="#231815" stroke-miterlimit="10" stroke-linecap="round" stroke-linejoin="round"/>
<path d="M204.4 422.2C204.4 422.2 197.7 409.4 195.7 389.9C180.9 390.1 168.9 392.4 155.3 398.2" stroke="#231815" stroke-miterlimit="10" stroke-linecap="round" stroke-linejoin="round"/>
<path d="M155.301 398.199C149.901 471.399 161.101 512.799 161.101 512.799" stroke="#231815" stroke-miterlimit="10" stroke-linecap="round" stroke-linejoin="round"/>
<path d="M255.9 547.399C249.2 545.299 241.3 538.299 239.2 525.399C238.6 521.899 234.8 518.699 234.4 514.499C233.7 507.399 236.6 503.999 236.6 503.999C234.5 501.599 232.2 498.299 233.1 494.399C234.5 487.799 243.8 487.299 258.3 494.899C271.3 501.699 270.6 535.699 270.6 535.699" stroke="#231815" stroke-miterlimit="10" stroke-linecap="round" stroke-linejoin="round"/>
<path d="M365.8 42.6992V151.299H220.6" stroke="#231815" stroke-miterlimit="10" stroke-linecap="round" stroke-linejoin="round"/>
<path d="M152.5 72.4V1H303.5" stroke="#231815" stroke-miterlimit="10" stroke-linecap="round" stroke-linejoin="round"/>
<path d="M97 341.1H1V216.5H177.9V267.6" stroke="#231815" stroke-miterlimit="10" stroke-linecap="round" stroke-linejoin="round"/>
<path d="M392.2 76.0996H391.7C391.4 76.0996 391.2 75.8996 391.2 75.5996C391.2 75.2996 391.4 75.0996 391.7 75.0996H392.2C392.5 75.0996 392.7 75.2996 392.7 75.5996C392.7 75.8996 392.5 76.0996 392.2 76.0996Z" fill="#231815"/>
<path d="M443 76.0996H442C441.7 76.0996 441.5 75.8996 441.5 75.5996C441.5 75.2996 441.7 75.0996 442 75.0996H443C443.3 75.0996 443.5 75.2996 443.5 75.5996C443.5 75.8996 443.3 76.0996 443 76.0996ZM435.8 76.0996H434.8C434.5 76.0996 434.3 75.8996 434.3 75.5996C434.3 75.2996 434.5 75.0996 434.8 75.0996H435.8C436.1 75.0996 436.3 75.2996 436.3 75.5996C436.3 75.8996 436.1 76.0996 435.8 76.0996ZM428.5 76.0996H427.5C427.2 76.0996 427 75.8996 427 75.5996C427 75.2996 427.2 75.0996 427.5 75.0996H428.5C428.8 75.0996 429 75.2996 429 75.5996C429 75.8996 428.8 76.0996 428.5 76.0996ZM421.3 76.0996H420.3C420 76.0996 419.8 75.8996 419.8 75.5996C419.8 75.2996 420 75.0996 420.3 75.0996H421.3C421.6 75.0996 421.8 75.2996 421.8 75.5996C421.8 75.8996 421.5 76.0996 421.3 76.0996ZM414 76.0996H413C412.7 76.0996 412.5 75.8996 412.5 75.5996C412.5 75.2996 412.7 75.0996 413 75.0996H414C414.3 75.0996 414.5 75.2996 414.5 75.5996C414.5 75.8996 414.3 76.0996 414 76.0996ZM406.8 76.0996H405.8C405.5 76.0996 405.3 75.8996 405.3 75.5996C405.3 75.2996 405.5 75.0996 405.8 75.0996H406.8C407.1 75.0996 407.3 75.2996 407.3 75.5996C407.3 75.8996 407 76.0996 406.8 76.0996ZM399.5 76.0996H398.5C398.2 76.0996 398 75.8996 398 75.5996C398 75.2996 398.2 75.0996 398.5 75.0996H399.5C399.8 75.0996 400 75.2996 400 75.5996C400 75.8996 399.8 76.0996 399.5 76.0996Z" fill="#231815"/>
<path d="M449.8 76.5996C449.5 76.5996 449.3 76.3996 449.3 76.0996C449 76.0996 448.8 75.8996 448.8 75.5996C448.8 75.2996 449 75.0996 449.3 75.0996H449.8C450.1 75.0996 450.3 75.2996 450.3 75.5996V76.0996C450.3 76.3996 450 76.5996 449.8 76.5996Z" fill="#231815"/>
<path d="M449.8 210.3C449.5 210.3 449.3 210.1 449.3 209.8V208.8C449.3 208.5 449.5 208.3 449.8 208.3C450.1 208.3 450.3 208.5 450.3 208.8V209.8C450.3 210.1 450 210.3 449.8 210.3ZM449.8 203.3C449.5 203.3 449.3 203.1 449.3 202.8V201.8C449.3 201.5 449.5 201.3 449.8 201.3C450.1 201.3 450.3 201.5 450.3 201.8V202.8C450.3 203 450 203.3 449.8 203.3ZM449.8 196.2C449.5 196.2 449.3 196 449.3 195.7V194.7C449.3 194.4 449.5 194.2 449.8 194.2C450.1 194.2 450.3 194.4 450.3 194.7V195.7C450.3 196 450 196.2 449.8 196.2ZM449.8 189.2C449.5 189.2 449.3 189 449.3 188.7V187.7C449.3 187.4 449.5 187.2 449.8 187.2C450.1 187.2 450.3 187.4 450.3 187.7V188.7C450.3 189 450 189.2 449.8 189.2ZM449.8 182.1C449.5 182.1 449.3 181.9 449.3 181.6V180.6C449.3 180.3 449.5 180.1 449.8 180.1C450.1 180.1 450.3 180.3 450.3 180.6V181.6C450.3 181.9 450 182.1 449.8 182.1ZM449.8 175.1C449.5 175.1 449.3 174.9 449.3 174.6V173.6C449.3 173.3 449.5 173.1 449.8 173.1C450.1 173.1 450.3 173.3 450.3 173.6V174.6C450.3 174.9 450 175.1 449.8 175.1ZM449.8 168.1C449.5 168.1 449.3 167.9 449.3 167.6V166.6C449.3 166.3 449.5 166.1 449.8 166.1C450.1 166.1 450.3 166.3 450.3 166.6V167.6C450.3 167.8 450 168.1 449.8 168.1ZM449.8 161C449.5 161 449.3 160.8 449.3 160.5V159.5C449.3 159.2 449.5 159 449.8 159C450.1 159 450.3 159.2 450.3 159.5V160.5C450.3 160.8 450 161 449.8 161ZM449.8 154C449.5 154 449.3 153.8 449.3 153.5V152.5C449.3 152.2 449.5 152 449.8 152C450.1 152 450.3 152.2 450.3 152.5V153.5C450.3 153.8 450 154 449.8 154ZM449.8 147C449.5 147 449.3 146.8 449.3 146.5V145.5C449.3 145.2 449.5 145 449.8 145C450.1 145 450.3 145.2 450.3 145.5V146.5C450.3 146.7 450 147 449.8 147ZM449.8 139.9C449.5 139.9 449.3 139.7 449.3 139.4V138.4C449.3 138.1 449.5 137.9 449.8 137.9C450.1 137.9 450.3 138.1 450.3 138.4V139.4C450.3 139.7 450 139.9 449.8 139.9ZM449.8 132.9C449.5 132.9 449.3 132.7 449.3 132.4V131.4C449.3 131.1 449.5 130.9 449.8 130.9C450.1 130.9 450.3 131.1 450.3 131.4V132.4C450.3 132.7 450 132.9 449.8 132.9ZM449.8 125.9C449.5 125.9 449.3 125.7 449.3 125.4V124.4C449.3 124.1 449.5 123.9 449.8 123.9C450.1 123.9 450.3 124.1 450.3 124.4V125.4C450.3 125.6 450 125.9 449.8 125.9ZM449.8 118.8C449.5 118.8 449.3 118.6 449.3 118.3V117.3C449.3 117 449.5 116.8 449.8 116.8C450.1 116.8 450.3 117 450.3 117.3V118.3C450.3 118.6 450 118.8 449.8 118.8ZM449.8 111.8C449.5 111.8 449.3 111.6 449.3 111.3V110.3C449.3 110 449.5 109.8 449.8 109.8C450.1 109.8 450.3 110 450.3 110.3V111.3C450.3 111.6 450 111.8 449.8 111.8ZM449.8 104.7C449.5 104.7 449.3 104.5 449.3 104.2V103.2C449.3 102.9 449.5 102.7 449.8 102.7C450.1 102.7 450.3 102.9 450.3 103.2V104.2C450.3 104.5 450 104.7 449.8 104.7ZM449.8 97.6996C449.5 97.6996 449.3 97.4996 449.3 97.1996V96.1996C449.3 95.8996 449.5 95.6996 449.8 95.6996C450.1 95.6996 450.3 95.8996 450.3 96.1996V97.1996C450.3 97.4996 450 97.6996 449.8 97.6996ZM449.8 90.6996C449.5 90.6996 449.3 90.4996 449.3 90.1996V89.1996C449.3 88.8996 449.5 88.6996 449.8 88.6996C450.1 88.6996 450.3 88.8996 450.3 89.1996V90.1996C450.3 90.3996 450 90.6996 449.8 90.6996ZM449.8 83.5996C449.5 83.5996 449.3 83.3996 449.3 83.0996V82.0996C449.3 81.7996 449.5 81.5996 449.8 81.5996C450.1 81.5996 450.3 81.7996 450.3 82.0996V83.0996C450.3 83.3996 450 83.5996 449.8 83.5996Z" fill="#231815"/>
<path d="M449.8 216.799H449.3C449 216.799 448.8 216.599 448.8 216.299C448.8 215.999 449 215.799 449.3 215.799C449.3 215.499 449.5 215.299 449.8 215.299C450.1 215.299 450.3 215.499 450.3 215.799V216.299C450.3 216.599 450 216.799 449.8 216.799Z" fill="#231815"/>
<path d="M443.2 216.799H442.2C441.9 216.799 441.7 216.599 441.7 216.299C441.7 215.999 441.9 215.799 442.2 215.799H443.2C443.5 215.799 443.7 215.999 443.7 216.299C443.7 216.599 443.5 216.799 443.2 216.799ZM436.1 216.799H435.1C434.8 216.799 434.6 216.599 434.6 216.299C434.6 215.999 434.8 215.799 435.1 215.799H436.1C436.4 215.799 436.6 215.999 436.6 216.299C436.6 216.599 436.4 216.799 436.1 216.799ZM429 216.799H428C427.7 216.799 427.5 216.599 427.5 216.299C427.5 215.999 427.7 215.799 428 215.799H429C429.3 215.799 429.5 215.999 429.5 216.299C429.5 216.599 429.3 216.799 429 216.799ZM421.9 216.799H420.9C420.6 216.799 420.4 216.599 420.4 216.299C420.4 215.999 420.6 215.799 420.9 215.799H421.9C422.2 215.799 422.4 215.999 422.4 216.299C422.4 216.599 422.2 216.799 421.9 216.799ZM414.8 216.799H413.8C413.5 216.799 413.3 216.599 413.3 216.299C413.3 215.999 413.5 215.799 413.8 215.799H414.8C415.1 215.799 415.3 215.999 415.3 216.299C415.3 216.599 415.1 216.799 414.8 216.799ZM407.7 216.799H406.7C406.4 216.799 406.2 216.599 406.2 216.299C406.2 215.999 406.4 215.799 406.7 215.799H407.7C408 215.799 408.2 215.999 408.2 216.299C408.2 216.599 408 216.799 407.7 216.799ZM400.7 216.799H399.7C399.4 216.799 399.2 216.599 399.2 216.299C399.2 215.999 399.4 215.799 399.7 215.799H400.7C401 215.799 401.2 215.999 401.2 216.299C401.2 216.599 400.9 216.799 400.7 216.799ZM393.6 216.799H392.6C392.3 216.799 392.1 216.599 392.1 216.299C392.1 215.999 392.3 215.799 392.6 215.799H393.6C393.9 215.799 394.1 215.999 394.1 216.299C394.1 216.599 393.8 216.799 393.6 216.799ZM386.5 216.799H385.5C385.2 216.799 385 216.599 385 216.299C385 215.999 385.2 215.799 385.5 215.799H386.5C386.8 215.799 387 215.999 387 216.299C387 216.599 386.8 216.799 386.5 216.799ZM379.4 216.799H378.4C378.1 216.799 377.9 216.599 377.9 216.299C377.9 215.999 378.1 215.799 378.4 215.799H379.4C379.7 215.799 379.9 215.999 379.9 216.299C379.9 216.599 379.7 216.799 379.4 216.799ZM372.3 216.799H371.3C371 216.799 370.8 216.599 370.8 216.299C370.8 215.999 371 215.799 371.3 215.799H372.3C372.6 215.799 372.8 215.999 372.8 216.299C372.8 216.599 372.6 216.799 372.3 216.799ZM365.2 216.799H364.2C363.9 216.799 363.7 216.599 363.7 216.299C363.7 215.999 363.9 215.799 364.2 215.799H365.2C365.5 215.799 365.7 215.999 365.7 216.299C365.7 216.599 365.5 216.799 365.2 216.799ZM358.1 216.799H357.1C356.8 216.799 356.6 216.599 356.6 216.299C356.6 215.999 356.8 215.799 357.1 215.799H358.1C358.4 215.799 358.6 215.999 358.6 216.299C358.6 216.599 358.4 216.799 358.1 216.799Z" fill="#231815"/>
<path d="M351 216.799H350.5C350.2 216.799 350 216.599 350 216.299V215.799C350 215.499 350.2 215.299 350.5 215.299C350.8 215.299 351 215.499 351 215.799C351.3 215.799 351.5 215.999 351.5 216.299C351.5 216.599 351.3 216.799 351 216.799Z" fill="#231815"/>
<path d="M350.5 210.699C350.2 210.699 350 210.499 350 210.199V209.299C350 208.999 350.2 208.799 350.5 208.799C350.8 208.799 351 208.999 351 209.299V210.199C351 210.499 350.8 210.699 350.5 210.699ZM350.5 204.199C350.2 204.199 350 203.999 350 203.699V202.799C350 202.499 350.2 202.299 350.5 202.299C350.8 202.299 351 202.499 351 202.799V203.699C351 203.999 350.8 204.199 350.5 204.199ZM350.5 197.699C350.2 197.699 350 197.499 350 197.199V196.299C350 195.999 350.2 195.799 350.5 195.799C350.8 195.799 351 195.999 351 196.299V197.199C351 197.499 350.8 197.699 350.5 197.699ZM350.5 191.199C350.2 191.199 350 190.999 350 190.699V189.799C350 189.499 350.2 189.299 350.5 189.299C350.8 189.299 351 189.499 351 189.799V190.699C351 190.999 350.8 191.199 350.5 191.199Z" fill="#231815"/>
<path d="M350.5 184.699C350.2 184.699 350 184.499 350 184.199V183.699C350 183.399 350.2 183.199 350.5 183.199C350.8 183.199 351 183.399 351 183.699V184.199C351 184.499 350.8 184.699 350.5 184.699Z" fill="#231815"/>
<path d="M505 266.6H609.3V395.2H426.9V355.3" stroke="#231815" stroke-miterlimit="10" stroke-linecap="round" stroke-linejoin="round"/>
</svg>
